<?xml version="1.0" encoding="UTF-8"?>
<svg xmlns="http://www.w3.org/2000/svg" xmlns:xlink="http://www.w3.org/1999/xlink" width="375pt" height="374.999991pt" viewBox="0 0 375 374.999991" version="1.2">
<g id="surface1">
<path style=" stroke:none;fill-rule:nonzero;fill:rgb(98.81897%,61.569214%,61.569214%);fill-opacity:1;" d="M 351.3125 375.746094 L 24.433594 375.746094 C 10.972656 375.746094 0 364.777344 0 351.3125 L 0 24.433594 C 0 10.96875 10.972656 0 24.433594 0 L 351.3125 0 C 364.777344 0 375.746094 10.96875 375.746094 24.433594 L 375.746094 351.3125 C 375.746094 364.777344 364.777344 375.746094 351.3125 375.746094 Z M 351.3125 375.746094 "/>
<path style=" stroke:none;fill-rule:nonzero;fill:rgb(100%,100%,100%);fill-opacity:1;" d="M 59.425781 144.503906 C 59.425781 215.933594 187.5 303.050781 187.5 303.050781 C 187.5 303.050781 315.007812 215.316406 315.574219 144.503906 C 315.574219 107.945312 285.808594 78.152344 249.28125 78.152344 C 221.207031 78.152344 197.027344 96.152344 187.5 120.867188 C 177.972656 96.152344 153.792969 78.152344 125.71875 78.152344 C 89.191406 78.152344 59.425781 107.945312 59.425781 144.503906 "/>
</g>
</svg>
