<?xml version="1.0" encoding="UTF-8"?>
<svg xmlns="http://www.w3.org/2000/svg" xmlns:xlink="http://www.w3.org/1999/xlink" width="375pt" height="374.999991pt" viewBox="0 0 375 374.999991" version="1.2">
<g id="surface1">
<path style=" stroke:none;fill-rule:nonzero;fill:rgb(98.81897%,61.569214%,61.569214%);fill-opacity:1;" d="M 351.3125 375.746094 L 24.433594 375.746094 C 10.972656 375.746094 0 364.777344 0 351.3125 L 0 24.433594 C 0 10.96875 10.972656 0 24.433594 0 L 351.3125 0 C 364.777344 0 375.746094 10.96875 375.746094 24.433594 L 375.746094 351.3125 C 375.746094 364.777344 364.777344 375.746094 351.3125 375.746094 Z M 351.3125 375.746094 "/>
<path style=" stroke:none;fill-rule:nonzero;fill:rgb(100%,100%,100%);fill-opacity:1;" d="M 50.40625 142.015625 C 50.40625 218.472656 187.5 311.730469 187.5 311.730469 C 187.5 311.730469 323.988281 217.816406 324.59375 142.015625 C 324.59375 102.878906 292.730469 70.992188 253.632812 70.992188 C 223.582031 70.992188 197.699219 90.257812 187.5 116.710938 C 177.300781 90.257812 151.417969 70.992188 121.367188 70.992188 C 82.269531 70.992188 50.40625 102.878906 50.40625 142.015625 "/>
</g>
</svg>
